<?xml version="1.0" encoding="UTF-8"?>
<svg width="800px" height="147px" viewBox="0 0 800 147" version="1.1" xmlns="http://www.w3.org/2000/svg" xmlns:xlink="http://www.w3.org/1999/xlink">
    <!-- Generator: sketchtool 59.1 (101010) - https://sketch.com -->
    <title>494C6659-8810-4FF7-8E4A-B03532632842</title>
    <desc>Created with sketchtool.</desc>
    <g id="Page-1" stroke="none" stroke-width="1" fill="none" fill-rule="evenodd">
        <g id="Day-Theme-Sun-Left" transform="translate(0.000000, -283.000000)">
            <g id="DT-Sun-Left" transform="translate(-6.000000, 283.000000)">
                <path d="M261.618324,46.2568495 C265.424706,43.633366 282.768689,61.5174733 306.846265,81.1512677 C319.512294,91.4796419 335.230206,117.095886 354,158 L150,158 C162.586821,130.583448 171.54904,112.775842 176.886656,104.577184 C185.333088,91.6033359 220.147687,88.3602849 223.236916,83.4050123 C235.639709,63.5103329 228.556687,71.0074814 234.240513,63.9069427 C243.812071,51.9496394 258.876082,48.1468929 261.618324,46.2568495 Z" id="2nd-mt-copy" fill="#96659D"></path>
                <path d="M525.420997,35.3333015 C525.659663,36.5728357 529.534066,40.1750878 534.034806,44.518748 C535.920542,46.3386699 542.317294,48.1125848 546.174405,51.4484846 C551.602292,56.1429022 571.561951,59.6408827 587.6566,73.1827695 C593.357775,77.9796849 597.296872,88.6870457 614.873135,96.5 C619.464091,98.5407596 627.174804,113.304052 637.137468,115.988792 C641.149052,117.069834 648.049179,128.570419 655.936766,138.562902 C659.384427,142.930613 665.072172,149.409645 673,158 L369,158 C383.864715,121.677424 402.638898,101.177424 425.322549,96.5 C428.920402,95.758114 434.161643,99.5567535 438.150317,98.6998004 C454.801492,95.122352 471.729953,86.0562207 476.744418,81.7035244 C490.481436,69.7794066 501.487999,56.9013062 502.803746,51.4484846 C504.85348,42.953811 524.981114,33.0487353 525.420997,35.3333015 Z" id="4th-mt-copy" fill="#96659D"></path>
                <g id="1st-mt-copy" transform="translate(0.000000, 50.000000)">
                    <path d="M133.660993,0.763249931 C150.357663,13.9719338 142.162769,17.2249894 168.932267,43.9982701 C186.778599,61.8471239 210.801176,83.2201756 241,108.117425 L158.551275,112 L120.5,108.117425 L91.8960954,112 C78.5490986,106.922892 71.5704226,104.21136 70.9600674,103.865404 C67.7777234,102.061619 51.0030361,103.478959 20.6360054,108.117425 C23.3994519,103.189675 24.9749115,100.725799 25.3623845,100.725799 C27.534307,100.725799 19.0801789,101.772334 0,103.865404 C12.8655908,77.4155581 25.0532019,60.1545677 36.5628332,52.0824327 C48.0896141,43.9982701 80.5277939,31.3216792 84.9107719,25.95009 C93.3854536,15.5638847 102.039819,11.1445709 105.855865,7.62905894 C109.022188,4.71210047 115.134141,9.03731615 117.214041,7.62905894 C124.701949,2.55914974 130.401139,-1.8156105 133.660993,0.763249931 Z" id="1st-mt" fill="#8A4785"></path>
                    <path d="M133.220706,0.224202265 C149.985864,13.4634901 141.757355,16.7240829 168.636657,43.5593964 C186.556192,61.4496054 210.677306,82.8721776 241,107.827113 L168.636657,111 L158.213084,103.56524 C140.388735,92.5677933 137.21041,87.0690697 148.678109,87.0690697 C155.57937,87.0690697 119.478149,80.2120645 120.005729,77.4598203 C121.523746,69.5407344 135.351959,66.0164869 138.047171,67.4235907 C140.742382,68.8306945 125.044548,24.6473044 127.132979,23.2357843 C134.651601,18.1541283 129.947481,-2.36063329 133.220706,0.224202265 Z" id="1st-mt-shadow" fill="#592E5C"></path>
                </g>
                <g id="5th-mt-copy" transform="translate(380.000000, 27.000000)">
                    <path d="M199.660658,0 L233.944574,26.650129 L251.904304,23.2799908 C258.738375,34.2061515 267.678514,42.8216072 278.724721,49.1263579 C282.151471,51.082215 288.514569,39.4395885 297.516976,45.4347604 C300.337648,47.3131928 306.61995,52.1046105 316.363884,59.8090136 C320.32656,63.9036328 329.488566,64.9272875 343.849902,62.879978 C348.428853,62.2272163 348.267423,70.8852858 353.648474,75.2654131 C355.254663,76.5728368 361.06774,72.8740086 364.431567,75.2654131 C370.355779,79.4770411 384.264134,94.0098873 405.515443,110.551014 C409.667776,113.783015 422.26235,115.555292 430.476519,120.75994 C432.991194,122.353284 435.832354,125.766637 439,131 L0,131 C5.37911488,125.030316 10.1042385,120.824836 14.1753709,118.383561 C23.5429702,112.76623 37.6947113,108.458961 42.4103885,105.174347 C67.4889724,87.7063433 82.1859172,73.720168 89.9143762,68.1373935 C95.1309345,64.3691301 106.18277,68.0637675 108.495909,65.5 C118.344571,54.5842386 125.786626,49.1263579 130.822075,49.1263579 C143.605007,47.0862992 150.62274,44.9801069 151.875273,42.8077809 C157.889486,32.3770594 173.817947,18.1077991 199.660658,0 Z" id="5th-mt" fill="#8A4785"></path>
                    <path d="M199.589908,0 L233.883958,26.650129 L251.848998,23.2799908 C258.685088,34.2061515 267.62787,42.8216072 278.677343,49.1263579 C282.105105,51.082215 288.470084,39.4395885 297.475153,45.4347604 C300.296658,47.3131928 306.580818,52.1046105 316.327632,59.8090136 C320.291479,63.9036328 329.456194,64.9272875 343.821775,62.879978 C348.402079,62.2272163 348.240602,70.8852858 353.623244,75.2654131 C355.229908,76.5728368 361.044702,72.8740086 364.409524,75.2654131 C370.335487,79.4770411 384.247953,94.0098873 405.505545,110.551014 C409.659105,113.783015 422.257402,115.555292 430.474,120.75994 C432.989418,122.353284 435.831418,125.766637 439,131 L0,131 C57.167997,121.268263 86.9941062,115.09029 89.4783275,112.46608 C102.375505,98.8421336 115.073462,96.1229105 114.418374,99.6909144 C109.962932,123.957936 169.795007,103.982617 179.102637,99.6909144 C182.319301,98.2077265 209.228603,95.0564223 259.830544,90.2370019 C295.889543,91.1184943 313.356553,91.1184943 312.231574,90.2370019 C308.661933,87.4399622 299.385407,84.8166551 284.401995,82.3670803 C235.3264,82.6359244 211.34374,82.1552428 212.454013,80.9250356 C222.305585,70.0092741 242.738063,60.0363403 273.751445,51.006234 C253.920929,45.004578 244.632123,40.917587 245.885027,38.7452611 C246.913032,36.9628718 214.965592,44.818929 216.506915,42.8077809 C218.545562,40.1477154 212.90656,25.8784551 199.589908,0 Z" id="5th-mt-shadow" fill="#592E5C"></path>
                </g>
                <g id="3rd-mt-copy" transform="translate(214.000000, 0.000000)">
                    <path d="M203.5,0.492507272 C205.774974,4.14847057 214.809786,12.4056152 230.604436,25.263941 C236.308408,29.9075089 251.887537,33.6459583 265.658364,41.6584675 C276.553008,47.9974794 323.666886,86.7779902 407,158 L0,158 C17.9564537,128.926071 32.665904,109.859799 44.128351,100.801186 C68.8688275,81.2491281 102.069237,76.4086788 122.322107,64.5349199 C156.250203,44.643712 166.609209,25.9899436 175.896798,14.3865683 C181.16479,7.80504514 201.726781,-2.35711743 203.5,0.492507272 Z" id="3rd-mt" fill="#8A4785"></path>
                    <path d="M203.5,1.11045891 C205.774974,4.75207872 214.809786,12.9768279 230.604436,25.7847065 C236.308408,30.4100562 251.887537,34.1338384 265.658364,42.1149121 C276.553008,48.429054 323.666886,87.0574166 407,158 L0,158 C110.699646,139.748868 164.496471,129.326485 161.390476,126.732853 C154.442993,120.93142 146.938566,124.339052 145.397898,122.142159 C143.857229,119.945267 204.36832,100.658218 206.929313,100.658218 C209.490306,100.658218 204.36832,91.8993842 195.993155,90.003269 C187.617989,88.1071539 206.992562,84.0672233 209.540905,83.5898973 C223.896326,80.901007 254.309287,93.1244139 251.620424,90.6112038 C237.609765,77.5158084 207.775019,69.8281237 162.116183,67.5481497 C188.928828,49.1719067 210.17396,42.6533252 225.851579,47.9924054 C234.998726,51.1075053 201.726781,-1.72798581 203.5,1.11045891 Z" id="3rd-mt-shadow" fill="#592E5C"></path>
                </g>
            </g>
        </g>
    </g>
</svg>